<svg width="188" height="40" viewBox="0 0 188 40" fill="none" xmlns="http://www.w3.org/2000/svg">
<path d="M3.93132 20.1779C3.73801 12.2523 16.2385 12.2523 16.1096 20.1134C16.174 24.044 13.1456 26.0415 10.0527 26.0415C6.95978 26.0415 3.86688 24.1084 3.93132 20.1779ZM2.96479 13.0255C0.96729 15.023 0.000759082 17.4072 0.000759082 20.1134V38.0909C-0.0636763 40.6683 3.99575 40.6039 3.93132 38.0909V28.1034C10.1815 33.1938 20.3623 28.2323 20.0402 20.1134C20.2979 14.1854 14.9498 10.0615 9.7305 10.0615C7.28196 10.126 4.83341 11.0281 2.96479 13.0255Z" fill="white"/>
<path d="M22.9398 2.0074V28.0393C22.8754 29.779 25.1306 30.7456 26.3549 29.4569C26.7415 29.0702 26.9348 28.6192 26.9348 28.0393V2.0074C26.9348 0.718694 25.9683 0.0743408 24.9373 0.0743408C23.9064 0.138776 22.9398 0.718694 22.9398 2.0074Z" fill="white"/>
<path d="M45.686 19.9844C45.7505 23.0773 43.8174 26.1702 39.8868 26.0414C35.763 26.1702 33.8299 23.0773 33.8944 19.9844C33.9588 16.956 35.9563 13.8631 39.8868 13.9275C43.6885 13.8631 45.686 16.956 45.686 19.9844ZM32.7345 12.961C23.9069 21.5953 36.1496 35.3845 45.8149 27.9744C45.8793 30.4874 49.8099 30.6163 49.7455 27.9744V20.1133C50.0676 14.1208 44.8484 9.99695 39.5647 9.99695C37.1161 9.99695 34.6676 10.899 32.7345 12.961Z" fill="white"/>
<path d="M52.1934 15.9894C52.1934 19.0179 54.1264 22.0464 58.057 21.9819C62.5675 22.6263 58.508 28.7476 56.0595 24.8815C53.0955 20.4355 50.1314 26.0414 54.3197 28.7476C59.99 33.5159 67.5934 24.8171 62.3097 19.7911C60.8277 17.8581 58.3792 18.5669 56.6394 17.407C54.3197 15.1518 58.7658 12.3166 59.9256 15.0229C63.534 20.4999 66.9491 10.448 58.057 9.99695H57.9281C54.1264 9.99695 52.2578 12.961 52.1934 15.9894Z" fill="white"/>
<path d="M72.6195 0.00329227C69.2044 -0.190014 71.1375 8.18658 70.6865 9.99077H69.7844C68.109 9.92634 65.7894 9.8619 65.7894 11.9883C65.7249 14.1146 68.109 14.0502 69.7844 13.9858H70.622V28.0971C70.5576 29.0636 71.5241 30.159 72.5551 30.0946C73.6505 30.159 74.617 29.0636 74.5526 28.0971V13.9278H77.3877C78.6764 13.9278 79.3208 12.9612 79.3208 11.9303C79.3208 10.8993 78.6764 9.93278 77.3877 9.93278H74.5526C74.166 8.25746 76.0346 0.00329227 72.8128 0.00329227H72.6195Z" fill="white"/>
<path d="M81.5114 11.9301C81.7047 12.4456 80.9314 29.8432 82.0913 29.4565C83.1867 30.7452 85.5064 29.7787 85.4419 28.039V11.9301C85.4419 10.6414 84.4754 9.99706 83.4444 9.99706C82.5423 9.99706 81.5114 10.6414 81.5114 11.9301ZM83.5733 2.00708C82.2846 2.00708 81.6402 2.97361 81.6402 4.00458C81.6402 5.03554 82.2846 6.00207 83.5733 6.00207C84.862 6.06651 85.5064 5.03554 85.5064 4.00458C85.4419 2.97361 84.7976 2.00708 83.5733 2.00708Z" fill="white"/>
<path d="M88.599 2.0074V28.0393C88.5346 29.779 90.7898 30.7456 92.0141 29.4569C92.4007 29.0702 92.594 28.6192 92.594 28.0393V2.0074C92.594 0.718694 91.6275 0.0743408 90.5965 0.0743408C89.63 0.138776 88.599 0.718694 88.599 2.0074Z" fill="white"/>
<path d="M95.6875 11.9301V28.039C95.6875 29.1344 96.5896 30.0365 97.685 30.0365C98.716 30.0365 99.6825 29.1344 99.6181 28.039V11.9301C99.6181 10.6414 98.6515 9.99706 97.6206 9.99706C96.654 9.99706 95.6875 10.6414 95.6875 11.9301ZM97.685 2.00708C96.3963 2.00708 95.7519 2.97361 95.7519 4.00458C95.7519 5.03554 96.3963 6.00207 97.685 6.00207C98.9737 6.06651 99.6181 5.03554 99.6181 4.00458C99.6181 2.97361 98.9737 2.00708 97.685 2.00708Z" fill="white"/>
<path d="M102.582 28.0393C102.517 30.6167 106.641 30.6167 106.512 28.0393V19.9849C106.319 12.0594 118.819 12.1238 118.69 19.9849V28.0393C118.626 30.6167 122.685 30.6167 122.621 28.0393C123.072 20.1782 123.008 10.2552 112.569 9.93298C102.195 10.2552 102.131 20.1138 102.582 28.0393Z" fill="white"/>
<path d="M27.6438 39.8303H26.935L25.7107 35.7065C25.6463 35.5132 25.5819 35.3199 25.5174 34.9977C25.453 34.7399 25.3886 34.5466 25.3886 34.4822C25.3241 34.8688 25.1953 35.2554 25.0664 35.7065L23.8421 39.8303H23.1333L21.458 33.6445H22.2312L23.1978 37.4462C23.3266 37.9617 23.4555 38.4772 23.5199 38.9282C23.5844 38.4127 23.7132 37.8973 23.8421 37.3818L24.9375 33.6445H25.7752L26.935 37.4462C27.0639 37.8973 27.1928 38.3483 27.2572 38.9282C27.3216 38.5416 27.3861 38.0261 27.5794 37.4462L28.5459 33.6445H29.3191L27.6438 39.8303Z" fill="white"/>
<path d="M46.0723 39.8303H42.5928V33.6445H46.0723V34.2889H43.366V36.2864H45.9434V36.9307H43.366V39.186H46.0723V39.8303Z" fill="white"/>
<path d="M59.7969 33.6445H61.5366C62.3743 33.6445 62.9542 33.7734 63.3408 34.0311C63.7274 34.2889 63.9207 34.6755 63.9207 35.191C63.9207 35.5776 63.7919 35.8353 63.5986 36.0931C63.4053 36.3508 63.0831 36.4797 62.6965 36.5441V36.6086C63.663 36.8019 64.114 37.2529 64.114 38.0906C64.114 38.6705 63.9207 39.0571 63.5341 39.3793C63.1475 39.7015 62.632 39.8303 61.9877 39.8303H59.7969V33.6445ZM60.5057 36.2864H61.6655C62.181 36.2864 62.5676 36.2219 62.7609 36.0286C62.9542 35.8998 63.0831 35.5776 63.0831 35.191C63.0831 34.8688 62.9542 34.6111 62.6965 34.4178C62.4387 34.2889 62.0521 34.16 61.5366 34.16H60.5057V36.2864ZM60.5057 36.9307V39.2504H61.7944C62.3099 39.2504 62.6965 39.186 62.9542 38.9282C63.2119 38.7349 63.3408 38.4127 63.3408 38.0261C63.3408 37.6395 63.2119 37.3818 62.9542 37.1885C62.6965 36.9952 62.3099 36.9307 61.7944 36.9307H60.5057Z" fill="white"/>
<path d="M95.8808 38.2199C95.8808 38.7354 95.6875 39.1864 95.3008 39.5086C94.9142 39.8308 94.3988 39.9597 93.69 39.9597C92.9812 39.9597 92.4013 39.8952 92.0146 39.7019V38.9931C92.2724 39.122 92.5301 39.1864 92.8523 39.2509C93.1745 39.3153 93.4322 39.3153 93.7544 39.3153C94.2054 39.3153 94.5921 39.2509 94.8498 39.0576C95.1075 38.8643 95.2364 38.6065 95.2364 38.2843C95.2364 38.091 95.172 37.8977 95.1075 37.7689C95.0431 37.64 94.8498 37.5111 94.6565 37.3823C94.4632 37.2534 94.141 37.1245 93.7544 36.9956C93.1745 36.8023 92.7879 36.5446 92.5301 36.2869C92.2724 36.0291 92.1435 35.6425 92.1435 35.1915C92.1435 34.7404 92.3368 34.3538 92.659 34.0316C93.0456 33.7739 93.4967 33.5806 94.0766 33.5806C94.7209 33.5806 95.2364 33.7094 95.7519 33.9027L95.5586 34.5471C95.0431 34.3538 94.5276 34.2249 94.0766 34.2249C93.69 34.2249 93.3678 34.2894 93.1745 34.4827C92.9812 34.676 92.8523 34.8693 92.8523 35.1915C92.8523 35.3848 92.9167 35.5781 92.9812 35.7069C93.0456 35.8358 93.1745 35.9647 93.3678 36.0935C93.5611 36.2224 93.8188 36.3513 94.2054 36.4802C94.8498 36.7379 95.3009 36.9312 95.5586 37.2534C95.7519 37.4467 95.8808 37.7689 95.8808 38.2199Z" fill="white"/>
<path d="M111.345 39.8303H110.636V34.2889H108.703V33.6445H113.342V34.2889H111.409L111.345 39.8303Z" fill="white"/>
<path d="M131.256 33.645V37.64C131.256 38.3488 131.062 38.9287 130.611 39.3153C130.16 39.7019 129.58 39.8952 128.871 39.8952C128.098 39.8952 127.518 39.7019 127.132 39.3153C126.745 38.9287 126.552 38.3488 126.552 37.64V33.645H127.261V37.7044C127.261 38.2199 127.389 38.6065 127.712 38.8643C127.969 39.122 128.42 39.2509 128.936 39.2509C129.451 39.2509 129.838 39.122 130.16 38.8643C130.418 38.6065 130.611 38.2199 130.611 37.64V33.5806H131.256V33.645Z" fill="white"/>
<path d="M150.2 36.673C150.2 37.704 149.942 38.4772 149.362 38.9927C148.782 39.5081 148.009 39.8303 146.978 39.8303H145.238V33.6445H147.107C148.073 33.6445 148.847 33.9023 149.362 34.4178C149.942 34.9977 150.2 35.7065 150.2 36.673ZM149.427 36.7374C149.427 35.8998 149.233 35.3199 148.847 34.9332C148.46 34.5466 147.816 34.2889 147.042 34.2889H146.012V39.2504H146.914C147.751 39.2504 148.396 39.0571 148.847 38.6061C149.233 38.155 149.427 37.5107 149.427 36.7374Z" fill="white"/>
<path d="M163.925 39.8303V33.6445H164.634V39.8303H163.925Z" fill="white"/>
<path d="M184.029 36.7379C184.029 37.7044 183.771 38.4776 183.255 39.0576C182.74 39.6375 182.031 39.8952 181.194 39.8952C180.291 39.8952 179.583 39.6375 179.067 39.0576C178.552 38.4776 178.294 37.7044 178.294 36.6734C178.294 35.6425 178.552 34.8693 179.067 34.3538C179.583 33.7739 180.291 33.5161 181.194 33.5161C182.096 33.5161 182.804 33.7739 183.255 34.3538C183.835 34.9337 184.029 35.7069 184.029 36.7379ZM179.132 36.7379C179.132 37.5755 179.325 38.2199 179.647 38.6709C180.034 39.122 180.549 39.3153 181.194 39.3153C181.902 39.3153 182.418 39.122 182.74 38.6709C183.062 38.2199 183.255 37.5755 183.255 36.7379C183.255 35.9002 183.062 35.2559 182.74 34.8693C182.418 34.4826 181.902 34.2249 181.194 34.2249C180.485 34.2249 179.969 34.4182 179.647 34.8693C179.325 35.2559 179.132 35.9002 179.132 36.7379Z" fill="white"/>
<path d="M158.319 27.9744C158.448 30.6163 154.453 30.4874 154.388 27.9744C144.723 35.3845 132.48 21.5953 141.308 12.961C147.236 6.58188 158.77 11.2857 158.319 20.1133V27.9744ZM148.46 26.0414C156.257 26.2991 156.128 13.7986 148.46 13.9275C140.599 13.7986 140.341 26.2991 148.46 26.0414Z" fill="white"/>
<path d="M165.02 28.0388C165.085 30.6162 161.025 30.6162 161.09 28.0388V19.9844C159.801 14.4429 171.077 5.74413 173.139 11.9299C173.139 12.8965 172.237 13.9919 171.142 13.9274C163.731 13.7341 165.085 23.2061 165.02 28.0388Z" fill="white"/>
<path d="M185.768 9.99692C188.346 9.93248 188.346 13.9919 185.768 13.9275H182.933V28.0388C182.933 29.0053 182.031 30.1007 180.936 30.0363C179.905 30.1007 178.938 29.0053 179.003 28.0388V13.9275C177.392 13.9275 174.105 14.443 174.17 11.93C174.105 9.48144 177.456 9.99692 179.003 9.99692C179.454 8.19273 177.521 -0.183866 180.936 0.00944056C184.351 -0.248301 182.482 8.19273 182.933 9.99692H185.768Z" fill="white"/>
</svg>
