<svg width="25" height="25" viewBox="0 0 25 25" fill="none" xmlns="http://www.w3.org/2000/svg">
<path fill-rule="evenodd" clip-rule="evenodd" d="M4.36066 4.86157C3.7809 4.86157 3.22394 5.09024 2.81255 5.49876C2.40101 5.90745 2.16895 6.46275 2.16895 7.04277V17.5727C2.16895 18.1527 2.40101 18.708 2.81255 19.1167C3.22394 19.5252 3.7809 19.7539 4.36066 19.7539H21.0234C21.6031 19.7539 22.1601 19.5252 22.5715 19.1167C22.983 18.708 23.2151 18.1527 23.2151 17.5727V7.04277C23.2151 6.46275 22.983 5.90745 22.5715 5.49876C22.1601 5.09024 21.6031 4.86157 21.0234 4.86157H4.36066ZM3.76653 6.45941C3.9233 6.30372 4.13693 6.21542 4.36066 6.21542H21.0234C21.2471 6.21542 21.4607 6.30372 21.6175 6.45941C21.6963 6.53766 21.7575 6.62968 21.7989 6.72956L13.1706 12.6614C13.0304 12.7577 12.8634 12.8096 12.692 12.8096C12.5206 12.8096 12.3538 12.7578 12.2136 12.6615L3.58516 6.72956C3.62653 6.62968 3.68773 6.53766 3.76653 6.45941ZM13.9374 13.7771L21.8613 8.32961V17.5727C21.8613 17.7906 21.7741 18.0005 21.6175 18.156C21.4607 18.3117 21.2471 18.4 21.0234 18.4H4.36066C4.13693 18.4 3.9233 18.3117 3.76653 18.156C3.60991 18.0005 3.52279 17.7906 3.52279 17.5727V8.32961L11.4466 13.7771C11.813 14.0289 12.2475 14.1635 12.692 14.1635C13.1366 14.1635 13.5711 14.0289 13.9374 13.7771Z" fill="white"/>
</svg>
