<svg width="40" height="40" viewBox="0 0 40 40" fill="none" xmlns="http://www.w3.org/2000/svg">
<path fill-rule="evenodd" clip-rule="evenodd" d="M6.46193 7.89999C5.51981 7.89999 4.61475 8.27158 3.94626 8.93543C3.2775 9.59955 2.90039 10.5019 2.90039 11.4444V28.5555C2.90039 29.4981 3.2775 30.4004 3.94626 31.0646C4.61475 31.7284 5.51981 32.1 6.46193 32.1H33.5389C34.481 32.1 35.386 31.7284 36.0545 31.0646C36.7233 30.4004 37.1004 29.4981 37.1004 28.5555V11.4444C37.1004 10.5019 36.7233 9.59954 36.0545 8.93543C35.386 8.27158 34.481 7.89999 33.5389 7.89999H6.46193ZM5.49646 10.4965C5.75122 10.2435 6.09836 10.1 6.46193 10.1H33.5389C33.9024 10.1 34.2496 10.2435 34.5043 10.4965C34.6324 10.6236 34.7318 10.7732 34.7991 10.9355L20.7781 20.5747C20.5503 20.7311 20.2789 20.8156 20.0004 20.8156C19.7219 20.8156 19.4507 20.7313 19.223 20.5749L5.20173 10.9355C5.26896 10.7732 5.36842 10.6236 5.49646 10.4965ZM22.0242 22.3878L34.9004 13.5356V28.5555C34.9004 28.9096 34.7588 29.2508 34.5043 29.5035C34.2496 29.7565 33.9024 29.9 33.5389 29.9H6.46193C6.09836 29.9 5.75122 29.7565 5.49646 29.5035C5.24196 29.2508 5.10039 28.9096 5.10039 28.5555V13.5355L17.9766 22.3878C18.5719 22.7968 19.278 23.0156 20.0004 23.0156C20.7228 23.0156 21.4289 22.7968 22.0242 22.3878Z" fill="white"/>
</svg>
