<svg width="32" height="31" viewBox="0 0 32 31" fill="none" xmlns="http://www.w3.org/2000/svg">
<path d="M15.9989 9.96915C14.9054 9.96915 13.8365 10.2934 12.9273 10.9009C12.018 11.5084 11.3094 12.3719 10.8909 13.3822C10.4725 14.3925 10.363 15.5041 10.5763 16.5766C10.7896 17.6491 11.3162 18.6343 12.0894 19.4075C12.8627 20.1807 13.8478 20.7073 14.9203 20.9206C15.9928 21.1339 17.1045 21.0245 18.1147 20.606C19.125 20.1875 19.9885 19.4789 20.596 18.5697C21.2035 17.6604 21.5278 16.5915 21.5278 15.498C21.5259 14.0322 20.9428 12.6271 19.9063 11.5906C18.8699 10.5542 17.4647 9.97106 15.9989 9.96915ZM15.9989 19.5845C15.1907 19.5845 14.4006 19.3449 13.7286 18.8958C13.0565 18.4468 12.5328 17.8086 12.2235 17.0618C11.9142 16.3151 11.8332 15.4935 11.9909 14.7008C12.1486 13.908 12.5378 13.1799 13.1093 12.6084C13.6808 12.0369 14.409 11.6477 15.2017 11.49C15.9944 11.3323 16.8161 11.4132 17.5628 11.7225C18.3095 12.0318 18.9477 12.5556 19.3968 13.2276C19.8458 13.8997 20.0855 14.6898 20.0855 15.498C20.0855 16.5818 19.6549 17.6212 18.8885 18.3876C18.1222 19.154 17.0827 19.5845 15.9989 19.5845ZM26.3355 15.8393C26.3427 15.6122 26.3427 15.3838 26.3355 15.1567L28.178 12.8538C28.2484 12.7656 28.2972 12.6622 28.3204 12.5517C28.3435 12.4413 28.3405 12.327 28.3114 12.2179C28.0231 11.1315 27.5915 10.0883 27.0278 9.11579C26.9718 9.01709 26.8933 8.93299 26.7987 8.87034C26.7041 8.80768 26.596 8.76824 26.4833 8.75521L23.5446 8.42949C23.39 8.26362 23.2297 8.10337 23.0638 7.94872L22.7369 5.00881C22.7239 4.89609 22.6844 4.78803 22.6218 4.69343C22.5591 4.59882 22.475 4.52033 22.3763 4.46434C21.405 3.90227 20.3635 3.47144 19.279 3.18309C19.1697 3.15453 19.0552 3.15205 18.9447 3.17585C18.8343 3.19965 18.731 3.24907 18.6432 3.32011L16.3355 5.16747C16.108 5.16026 15.8803 5.16026 15.6528 5.16747L13.3547 3.31891C13.2665 3.24848 13.1631 3.19972 13.0527 3.17655C12.9422 3.15338 12.8279 3.15644 12.7189 3.1855C11.6324 3.47378 10.5892 3.90546 9.61671 4.46915C9.51801 4.52514 9.43392 4.60362 9.37126 4.69823C9.30861 4.79284 9.26917 4.9009 9.25614 5.01362L8.93522 7.95232C8.76936 8.10777 8.6091 8.26803 8.45445 8.43309L5.51335 8.76723C5.40063 8.78026 5.29257 8.8197 5.19796 8.88236C5.10335 8.94501 5.02486 9.02911 4.96888 9.12781C4.40681 10.0991 3.97597 11.1406 3.68763 12.2252C3.65976 12.3331 3.6573 12.4461 3.68045 12.5551C3.7036 12.6642 3.75172 12.7664 3.82104 12.8538L5.6684 15.1615C5.66119 15.389 5.66119 15.6166 5.6684 15.8442L3.81984 18.1482C3.74941 18.2364 3.70065 18.3398 3.67748 18.4503C3.65431 18.5607 3.65737 18.675 3.68643 18.7841C3.97521 19.8684 4.40688 20.9096 4.97008 21.8802C5.02607 21.9789 5.10455 22.063 5.19916 22.1257C5.29377 22.1883 5.40183 22.2278 5.51455 22.2408L8.45325 22.5665C8.6087 22.7324 8.76896 22.8926 8.93402 23.0473L9.26816 25.9836C9.28118 26.0963 9.32063 26.2044 9.38328 26.299C9.44594 26.3936 9.53003 26.4721 9.62873 26.528C10.6 27.0901 11.6416 27.521 12.7261 27.8093C12.8351 27.8384 12.9494 27.8414 13.0599 27.8182C13.1703 27.7951 13.2738 27.7463 13.3619 27.6759L15.6576 25.8345C15.8847 25.8417 16.1131 25.8417 16.3403 25.8345L18.6492 27.6831C18.7772 27.7852 18.9361 27.8408 19.0999 27.8405C19.1624 27.8403 19.2245 27.8322 19.285 27.8165C20.3694 27.5277 21.4105 27.0961 22.3811 26.5329C22.4798 26.4769 22.5639 26.3984 22.6266 26.3038C22.6892 26.2092 22.7287 26.1011 22.7417 25.9884L23.0674 23.0497C23.2333 22.895 23.3936 22.7348 23.5482 22.5689L26.4881 22.242C26.6008 22.229 26.7089 22.1895 26.8035 22.1269C26.8981 22.0642 26.9766 21.9801 27.0326 21.8814C27.5949 20.9102 28.0257 19.8687 28.3138 18.7841C28.3429 18.675 28.346 18.5607 28.3228 18.4503C28.2996 18.3398 28.2508 18.2364 28.1804 18.1482L26.3355 15.8393ZM25.9629 20.843L23.1215 21.1591C22.944 21.1795 22.7804 21.2652 22.6624 21.3994C22.4248 21.667 22.1716 21.9203 21.904 22.1579C21.7697 22.2758 21.6841 22.4394 21.6636 22.617L21.3475 25.4571C20.6823 25.8119 19.9833 26.0994 19.2609 26.3153L17.029 24.5292C16.901 24.4271 16.742 24.3716 16.5783 24.3718H16.535C16.1779 24.3922 15.8199 24.3922 15.4629 24.3718C15.2845 24.3609 15.1085 24.4166 14.9689 24.528L12.7381 26.3153C12.0164 26.0982 11.3182 25.8095 10.654 25.4535L10.3379 22.6146C10.3174 22.437 10.2317 22.2734 10.0975 22.1555C9.82988 21.9179 9.57663 21.6646 9.33907 21.397C9.2211 21.2628 9.05748 21.1771 8.87993 21.1567L6.03979 20.8405C5.6854 20.1772 5.39793 19.4803 5.18162 18.76L6.96768 16.528C7.07915 16.3884 7.13483 16.2124 7.12393 16.0341C7.10349 15.677 7.10349 15.319 7.12393 14.9619C7.13483 14.7836 7.07915 14.6076 6.96768 14.468L5.18162 12.2372C5.39875 11.5155 5.68744 10.8173 6.0434 10.153L8.88234 9.83694C9.05988 9.81647 9.2235 9.73081 9.34147 9.59656C9.57903 9.32895 9.83228 9.0757 10.0999 8.83814C10.2341 8.72017 10.3198 8.55655 10.3403 8.37901L10.6564 5.53886C11.3197 5.18447 12.0166 4.897 12.7369 4.68069L14.9689 6.46675C15.1085 6.57823 15.2845 6.63391 15.4629 6.623C15.8199 6.60256 16.1779 6.60256 16.535 6.623C16.7133 6.63391 16.8894 6.57823 17.029 6.46675L19.2597 4.68069C19.9814 4.89782 20.6796 5.18651 21.3439 5.54247L21.66 8.38381C21.6805 8.56136 21.7661 8.72498 21.9004 8.84295C22.168 9.08051 22.4212 9.33376 22.6588 9.60136C22.7768 9.73562 22.9404 9.82128 23.1179 9.84175L25.9581 10.1579C26.3123 10.8204 26.5998 11.5165 26.8162 12.236L25.0302 14.468C24.9187 14.6076 24.863 14.7836 24.8739 14.9619C24.8944 15.319 24.8944 15.677 24.8739 16.0341C24.863 16.2124 24.9187 16.3884 25.0302 16.528L26.8162 18.7588C26.5999 19.4804 26.312 20.1786 25.9569 20.843H25.9629Z" fill="white"/>
</svg>
