<svg width="50" height="50" viewBox="0 0 50 50" fill="none" xmlns="http://www.w3.org/2000/svg">
<path d="M25.0005 16.0156C23.2235 16.0156 21.4865 16.5426 20.009 17.5298C18.5315 18.517 17.38 19.9202 16.7 21.5618C16.02 23.2035 15.842 25.01 16.1887 26.7528C16.5354 28.4956 17.3911 30.0964 18.6475 31.3529C19.904 32.6094 21.5049 33.4651 23.2477 33.8118C24.9905 34.1584 26.7969 33.9805 28.4386 33.3005C30.0803 32.6205 31.4835 31.4689 32.4707 29.9915C33.4579 28.514 33.9848 26.777 33.9848 25C33.9817 22.6182 33.0342 20.3348 31.3499 18.6505C29.6657 16.9663 27.3823 16.0187 25.0005 16.0156ZM25.0005 31.6406C23.6871 31.6406 22.4032 31.2512 21.3111 30.5215C20.2191 29.7918 19.3679 28.7547 18.8653 27.5413C18.3627 26.3279 18.2312 24.9926 18.4874 23.7045C18.7437 22.4163 19.3761 21.2331 20.3048 20.3044C21.2335 19.3757 22.4168 18.7432 23.7049 18.487C24.9931 18.2308 26.3283 18.3623 27.5417 18.8649C28.7551 19.3675 29.7923 20.2186 30.5219 21.3107C31.2516 22.4027 31.6411 23.6866 31.6411 25C31.6411 26.7612 30.9414 28.4503 29.6961 29.6956C28.4507 30.941 26.7617 31.6406 25.0005 31.6406ZM41.7973 25.5547C41.809 25.1856 41.809 24.8145 41.7973 24.4453L44.7915 20.7031C44.9059 20.5599 44.9852 20.3918 45.0228 20.2123C45.0605 20.0329 45.0555 19.8471 45.0083 19.6699C44.5398 17.9045 43.8383 16.2092 42.9223 14.6289C42.8314 14.4685 42.7038 14.3319 42.5501 14.2301C42.3963 14.1282 42.2207 14.0641 42.0376 14.043L37.2622 13.5137C37.0109 13.2442 36.7505 12.9837 36.4809 12.7324L35.9497 7.95509C35.9285 7.77191 35.8644 7.59632 35.7626 7.44258C35.6608 7.28884 35.5241 7.1613 35.3637 7.07032C33.7854 6.15696 32.0929 5.45685 30.3305 4.98829C30.1529 4.94188 29.9669 4.93785 29.7874 4.97652C29.6079 5.0152 29.4401 5.0955 29.2973 5.21095L25.5473 8.2129C25.1776 8.20118 24.8077 8.20118 24.438 8.2129L20.7036 5.20899C20.5603 5.09455 20.3922 5.01531 20.2128 4.97766C20.0333 4.94001 19.8475 4.94499 19.6704 4.9922C17.9049 5.46066 16.2097 6.16214 14.6294 7.07814C14.469 7.16911 14.3323 7.29666 14.2305 7.45039C14.1287 7.60413 14.0646 7.77973 14.0434 7.9629L13.5219 12.7383C13.2524 12.9909 12.992 13.2513 12.7407 13.5195L7.96139 14.0625C7.77821 14.0837 7.60262 14.1478 7.44888 14.2496C7.29514 14.3514 7.1676 14.4881 7.07662 14.6484C6.16326 16.2268 5.46315 17.9193 4.99459 19.6817C4.9493 19.8571 4.94531 20.0406 4.98292 20.2179C5.02054 20.3951 5.09874 20.5612 5.21139 20.7031L8.21334 24.4531C8.20162 24.8228 8.20162 25.1928 8.21334 25.5625L5.20944 29.3067C5.09499 29.4499 5.01575 29.618 4.9781 29.7975C4.94045 29.9769 4.94543 30.1627 4.99264 30.3399C5.46191 32.102 6.16337 33.7939 7.07858 35.3711C7.16955 35.5315 7.2971 35.6681 7.45083 35.77C7.60457 35.8718 7.78017 35.9359 7.96334 35.957L12.7387 36.4863C12.9913 36.7559 13.2518 37.0163 13.52 37.2676L14.063 42.0391C14.0841 42.2223 14.1482 42.3978 14.25 42.5516C14.3518 42.7053 14.4885 42.8329 14.6489 42.9238C16.2273 43.8372 17.9197 44.5373 19.6821 45.0059C19.8593 45.0531 20.045 45.0581 20.2245 45.0204C20.4039 44.9828 20.572 44.9035 20.7153 44.7891L24.4458 41.7969C24.8149 41.8086 25.186 41.8086 25.5551 41.7969L29.3071 44.8008C29.5151 44.9668 29.7734 45.057 30.0395 45.0567C30.141 45.0563 30.2421 45.0432 30.3403 45.0176C32.1024 44.5483 33.7943 43.8469 35.3715 42.9317C35.5319 42.8407 35.6686 42.7131 35.7704 42.5594C35.8722 42.4057 35.9363 42.2301 35.9575 42.0469L36.4868 37.2715C36.7563 37.0202 37.0167 36.7598 37.268 36.4902L42.0454 35.959C42.2286 35.9378 42.4041 35.8737 42.5579 35.7719C42.7116 35.6701 42.8392 35.5334 42.9301 35.3731C43.8438 33.7949 44.544 32.1023 45.0122 30.3399C45.0594 30.1627 45.0644 29.9769 45.0267 29.7975C44.9891 29.618 44.9098 29.4499 44.7954 29.3067L41.7973 25.5547ZM41.1919 33.6856L36.5747 34.1992C36.2862 34.2325 36.0203 34.3717 35.8286 34.5899C35.4426 35.0247 35.031 35.4362 34.5962 35.8223C34.378 36.014 34.2388 36.2799 34.2055 36.5684L33.6919 41.1836C32.6109 41.7601 31.475 42.2272 30.3012 42.5781L26.6743 39.6758C26.4663 39.5098 26.208 39.4196 25.9419 39.4199H25.8715C25.2913 39.4531 24.7096 39.4531 24.1294 39.4199C23.8396 39.4022 23.5535 39.4927 23.3266 39.6738L19.7016 42.5781C18.5289 42.2253 17.3944 41.7562 16.3149 41.1777L15.8012 36.5645C15.768 36.276 15.6288 36.0101 15.4106 35.8184C14.9757 35.4323 14.5642 35.0208 14.1782 34.5859C13.9865 34.3678 13.7206 34.2286 13.4321 34.1953L8.81686 33.6817C8.24098 32.6038 7.77383 31.4712 7.42233 30.3008L10.3247 26.6738C10.5058 26.447 10.5963 26.1609 10.5786 25.8711C10.5454 25.2909 10.5454 24.7092 10.5786 24.1289C10.5963 23.8391 10.5058 23.5531 10.3247 23.3262L7.42233 19.7012C7.77516 18.5285 8.24429 17.3939 8.82272 16.3145L13.436 15.8008C13.7245 15.7675 13.9904 15.6283 14.1821 15.4102C14.5681 14.9753 14.9797 14.5638 15.4145 14.1777C15.6327 13.986 15.7719 13.7202 15.8051 13.4317L16.3188 8.81642C17.3967 8.24054 18.5292 7.77339 19.6997 7.42189L23.3266 10.3242C23.5535 10.5054 23.8396 10.5959 24.1294 10.5781C24.7096 10.5449 25.2913 10.5449 25.8715 10.5781C26.1613 10.5959 26.4474 10.5054 26.6743 10.3242L30.2993 7.42189C31.472 7.77472 32.6066 8.24384 33.686 8.82228L34.1997 13.4395C34.2329 13.728 34.3721 13.9939 34.5903 14.1856C35.0252 14.5716 35.4367 14.9831 35.8227 15.418C36.0144 15.6361 36.2803 15.7753 36.5688 15.8086L41.184 16.3223C41.7597 17.3989 42.2268 18.5301 42.5786 19.6992L39.6762 23.3262C39.4951 23.5531 39.4046 23.8391 39.4223 24.1289C39.4555 24.7092 39.4555 25.2909 39.4223 25.8711C39.4046 26.1609 39.4951 26.447 39.6762 26.6738L42.5786 30.2988C42.227 31.4714 41.7592 32.606 41.1821 33.6856H41.1919Z" fill="white"/>
</svg>
