<svg width="40" height="40" viewBox="0 0 40 40" fill="none" xmlns="http://www.w3.org/2000/svg">
<path fill-rule="evenodd" clip-rule="evenodd" d="M19.9998 5.90002C16.0786 5.90002 12.8998 9.0788 12.8998 13C12.8998 16.9212 16.0786 20.1 19.9998 20.1C23.921 20.1 27.0998 16.9212 27.0998 13C27.0998 9.0788 23.921 5.90002 19.9998 5.90002ZM15.0998 13C15.0998 10.2938 17.2936 8.10002 19.9998 8.10002C22.706 8.10002 24.8998 10.2938 24.8998 13C24.8998 15.7062 22.706 17.9 19.9998 17.9C17.2936 17.9 15.0998 15.7062 15.0998 13Z" fill="white"/>
<path fill-rule="evenodd" clip-rule="evenodd" d="M13.3331 22.2333C11.2732 22.2333 9.29774 23.0516 7.84121 24.5081C6.38468 25.9647 5.56641 27.9402 5.56641 30C5.56641 31.1758 6.03349 32.3034 6.8649 33.1348C7.69631 33.9663 8.82395 34.4333 9.99974 34.4333H29.9997C31.1755 34.4333 32.3032 33.9663 33.1346 33.1348C33.966 32.3034 34.4331 31.1758 34.4331 30C34.4331 27.9402 33.6148 25.9647 32.1583 24.5081C30.7017 23.0516 28.7263 22.2333 26.6664 22.2333H13.3331ZM9.39684 26.0638C10.4408 25.0198 11.8567 24.4333 13.3331 24.4333H26.6664C28.1428 24.4333 29.5587 25.0198 30.6026 26.0638C31.6466 27.1077 32.2331 28.5236 32.2331 30C32.2331 30.5923 31.9978 31.1604 31.5789 31.5792C31.1601 31.998 30.5921 32.2333 29.9997 32.2333H9.99974C9.40742 32.2333 8.83937 31.998 8.42053 31.5792C8.0017 31.1604 7.76641 30.5923 7.76641 30C7.76641 28.5236 8.35289 27.1077 9.39684 26.0638Z" fill="white"/>
</svg>
