<svg width="25" height="25" viewBox="0 0 25 25" fill="none" xmlns="http://www.w3.org/2000/svg">
<path fill-rule="evenodd" clip-rule="evenodd" d="M12.6926 3.63086C10.2796 3.63086 8.32339 5.58703 8.32339 8.00009C8.32339 10.4131 10.2796 12.3693 12.6926 12.3693C15.1057 12.3693 17.0619 10.4131 17.0619 8.00009C17.0619 5.58703 15.1057 3.63086 12.6926 3.63086ZM9.67724 8.00009C9.67724 6.33474 11.0273 4.98471 12.6926 4.98471C14.358 4.98471 15.708 6.33474 15.708 8.00009C15.708 9.66544 14.358 11.0155 12.6926 11.0155C11.0273 11.0155 9.67724 9.66544 9.67724 8.00009Z" fill="white"/>
<path fill-rule="evenodd" clip-rule="evenodd" d="M8.59003 13.6821C7.32244 13.6821 6.10675 14.1857 5.21043 15.082C4.3141 15.9783 3.81055 17.194 3.81055 18.4616C3.81055 19.1852 4.09798 19.8791 4.60962 20.3907C5.12126 20.9024 5.81519 21.1898 6.53875 21.1898H18.8464C19.57 21.1898 20.2639 20.9024 20.7756 20.3907C21.2872 19.8791 21.5746 19.1852 21.5746 18.4616C21.5746 17.194 21.0711 15.9783 20.1748 15.082C19.2784 14.1857 18.0628 13.6821 16.7952 13.6821H8.59003ZM6.16774 16.0393C6.81017 15.3969 7.6815 15.036 8.59003 15.036H16.7952C17.7037 15.036 18.575 15.3969 19.2175 16.0393C19.8599 16.6818 20.2208 17.5531 20.2208 18.4616C20.2208 18.8261 20.076 19.1757 19.8183 19.4334C19.5605 19.6912 19.2109 19.836 18.8464 19.836H6.53875C6.17425 19.836 5.82468 19.6912 5.56693 19.4334C5.30919 19.1757 5.16439 18.8261 5.16439 18.4616C5.16439 17.5531 5.52531 16.6818 6.16774 16.0393Z" fill="white"/>
</svg>
