<svg width="40" height="40" viewBox="0 0 40 40" fill="none" xmlns="http://www.w3.org/2000/svg">
<g clip-path="url(#clip0_15_2289)">
<path d="M19.9997 3.33334C29.2047 3.33334 36.6664 10.795 36.6664 20C36.6664 29.205 29.2047 36.6667 19.9997 36.6667C17.3397 36.6703 14.7177 36.0347 12.3547 34.8133L5.97802 36.5917C5.62226 36.691 5.24649 36.6939 4.88923 36.6001C4.53196 36.5064 4.20605 36.3193 3.94487 36.0582C3.68369 35.797 3.49665 35.4711 3.4029 35.1138C3.30915 34.7565 3.31207 34.3808 3.41136 34.025L5.19136 27.6533C3.96694 25.2882 3.32956 22.6633 3.33302 20C3.33302 10.795 10.7947 3.33334 19.9997 3.33334ZM19.9997 5.83334C16.2425 5.83334 12.6391 7.3259 9.98234 9.98266C7.32558 12.6394 5.83302 16.2428 5.83302 20C5.83302 22.45 6.45469 24.805 7.62136 26.895L7.87136 27.345L6.01802 33.985L12.663 32.1317L13.113 32.3817C15.0037 33.4328 17.1099 34.0371 19.2703 34.148C21.4306 34.259 23.5877 33.8737 25.5761 33.0218C27.5645 32.1699 29.3314 30.874 30.7413 29.2334C32.1512 27.5927 33.1666 25.651 33.7098 23.5571C34.253 21.4632 34.3094 19.2727 33.8748 17.1537C33.4401 15.0346 32.526 13.0432 31.2024 11.3321C29.8789 9.62108 28.181 8.23588 26.2392 7.28272C24.2973 6.32956 22.1629 5.83376 19.9997 5.83334ZM14.583 21.6667H22.0797C22.3964 21.6668 22.7013 21.7871 22.9327 22.0033C23.1641 22.2195 23.3048 22.5155 23.3264 22.8315C23.348 23.1474 23.2488 23.4598 23.049 23.7055C22.8491 23.9512 22.5634 24.1118 22.2497 24.155L22.0797 24.1667H14.583C14.2663 24.1666 13.9615 24.0463 13.73 23.8301C13.4986 23.6138 13.3579 23.3178 13.3363 23.0019C13.3147 22.6859 13.4139 22.3735 13.6137 22.1278C13.8136 21.8822 14.0993 21.7215 14.413 21.6783L14.583 21.6667ZM14.583 15.8333H25.4247C25.7413 15.8339 26.0458 15.9545 26.2769 16.1708C26.508 16.3872 26.6484 16.6831 26.6698 16.999C26.6912 17.3148 26.5919 17.627 26.392 17.8725C26.1922 18.118 25.9066 18.2785 25.593 18.3217L25.4247 18.3333H14.583C14.2663 18.3332 13.9615 18.2129 13.73 17.9967C13.4986 17.7805 13.3579 17.4845 13.3363 17.1685C13.3147 16.8526 13.4139 16.5402 13.6137 16.2945C13.8136 16.0488 14.0993 15.8882 14.413 15.845L14.583 15.8333Z" fill="white"/>
</g>
<defs>
<clipPath id="clip0_15_2289">
<rect width="40" height="40" fill="white"/>
</clipPath>
</defs>
</svg>
