<svg width="25" height="25" viewBox="0 0 25 25" fill="none" xmlns="http://www.w3.org/2000/svg">
<g clip-path="url(#clip0_28_297)">
<path d="M12 3C17.523 3 22 7.47677 22 12.9995C22 18.5222 17.523 22.999 12 22.999C10.404 23.0012 8.83083 22.6198 7.41301 21.887L3.58701 22.954C3.37355 23.0136 3.14809 23.0153 2.93373 22.9591C2.71937 22.9028 2.52382 22.7906 2.36712 22.6339C2.21041 22.4772 2.09818 22.2817 2.04194 22.0673C1.98569 21.853 1.98744 21.6275 2.04701 21.4141L3.11501 17.5913C2.38036 16.1723 1.99793 14.5974 2.00001 12.9995C2.00001 7.47677 6.47701 3 12 3ZM12 4.49992C9.74567 4.49992 7.58366 5.39541 5.9896 6.98939C4.39554 8.58337 3.50001 10.7453 3.50001 12.9995C3.50001 14.4694 3.87301 15.8823 4.57301 17.1363L4.72301 17.4063L3.61101 21.3901L7.59801 20.2781L7.86801 20.4281C9.00239 21.0588 10.2661 21.4213 11.5624 21.4879C12.8586 21.5545 14.1528 21.3233 15.3458 20.8122C16.5389 20.3011 17.599 19.5235 18.4449 18.5392C19.2909 17.5549 19.9002 16.3899 20.2261 15.1337C20.552 13.8774 20.5858 12.5632 20.325 11.2918C20.0643 10.0204 19.5158 8.82559 18.7216 7.79902C17.9275 6.77245 16.9088 5.94137 15.7437 5.3695C14.5786 4.79764 13.2979 4.50017 12 4.49992ZM8.75001 13.9994H13.248C13.438 13.9995 13.6209 14.0717 13.7598 14.2014C13.8986 14.3311 13.9831 14.5087 13.996 14.6983C14.009 14.8879 13.9495 15.0753 13.8296 15.2227C13.7097 15.3701 13.5383 15.4665 13.35 15.4924L13.248 15.4994H8.75001C8.55998 15.4993 8.37707 15.4271 8.23821 15.2974C8.09936 15.1677 8.01493 14.9901 8.00198 14.8005C7.98903 14.611 8.04852 14.4235 8.16844 14.2761C8.28836 14.1287 8.45976 14.0323 8.64801 14.0064L8.75001 13.9994ZM8.75001 10.4996H15.255C15.4449 10.4999 15.6277 10.5723 15.7663 10.7021C15.905 10.8319 15.9893 11.0095 16.0021 11.199C16.0149 11.3885 15.9553 11.5758 15.8354 11.7231C15.7155 11.8703 15.5442 11.9667 15.356 11.9925L15.255 11.9995H8.75001C8.55998 11.9995 8.37707 11.9273 8.23821 11.7976C8.09936 11.6679 8.01493 11.4903 8.00198 11.3007C7.98903 11.1111 8.04852 10.9237 8.16844 10.7763C8.28836 10.6289 8.45976 10.5325 8.64801 10.5066L8.75001 10.4996Z" fill="white"/>
</g>
<defs>
<clipPath id="clip0_28_297">
<rect width="24.6154" height="24.6154" fill="white" transform="translate(0 0.384521)"/>
</clipPath>
</defs>
</svg>
